<svg width="219" height="82" viewBox="0 0 219 82" fill="none" xmlns="http://www.w3.org/2000/svg">
<path d="M0.5 16C0.5 7.43959 7.43959 0.5 16 0.5H203C211.56 0.5 218.5 7.43959 218.5 16V66C218.5 74.5604 211.56 81.5 203 81.5H16C7.43959 81.5 0.5 74.5604 0.5 66V16Z" fill="#EFD372"/>
<path d="M0.5 16C0.5 7.43959 7.43959 0.5 16 0.5H203C211.56 0.5 218.5 7.43959 218.5 16V66C218.5 74.5604 211.56 81.5 203 81.5H16C7.43959 81.5 0.5 74.5604 0.5 66V16Z" stroke="#EFD372"/>
<path d="M191 58C201.493 58 210 50.3888 210 41C210 31.6112 201.493 24 191 24C180.507 24 172 31.6112 172 41C172 50.3888 180.507 58 191 58Z" fill="#335B6B"/>
<path d="M197.038 40.5H183M191.077 35L198 40.5L191.077 46V35Z" stroke="white" stroke-linecap="round" stroke-linejoin="round"/>
<path d="M43.1494 45.5435V47H35.9966V45.5435H43.1494ZM36.3584 33.4922V47H34.5679V33.4922H36.3584ZM42.2031 39.2998V40.7563H35.9966V39.2998H42.2031ZM43.0566 33.4922V34.958H35.9966V33.4922H43.0566ZM46.6266 36.9619L48.8253 40.6172L51.0519 36.9619H53.0651L49.7809 41.916L53.1671 47H51.1818L48.8624 43.2334L46.5431 47H44.5485L47.9254 41.916L44.6505 36.9619H46.6266ZM56.969 38.8916V50.8594H55.2434V36.9619H56.8206L56.969 38.8916ZM63.7322 41.8975V42.0923C63.7322 42.8221 63.6456 43.4993 63.4724 44.124C63.2993 44.7425 63.0457 45.2806 62.7117 45.7383C62.3839 46.196 61.9788 46.5516 61.4964 46.8052C61.0139 47.0588 60.4604 47.1855 59.8357 47.1855C59.1987 47.1855 58.6359 47.0804 58.1472 46.8701C57.6586 46.6598 57.2443 46.3537 56.9041 45.9517C56.5639 45.5496 56.2918 45.0672 56.0877 44.5044C55.8898 43.9416 55.7537 43.3076 55.6795 42.6025V41.5635C55.7537 40.8213 55.8929 40.1564 56.097 39.5688C56.3011 38.9813 56.5701 38.4803 56.9041 38.0659C57.2443 37.6453 57.6555 37.3268 58.138 37.1104C58.6204 36.8877 59.177 36.7764 59.8079 36.7764C60.4387 36.7764 60.9985 36.9001 61.4871 37.1475C61.9757 37.3887 62.387 37.735 62.721 38.1865C63.055 38.638 63.3054 39.1792 63.4724 39.8101C63.6456 40.4347 63.7322 41.1305 63.7322 41.8975ZM62.0066 42.0923V41.8975C62.0066 41.3965 61.954 40.9264 61.8489 40.4873C61.7438 40.042 61.5799 39.6523 61.3572 39.3184C61.1407 38.9782 60.8624 38.7122 60.5222 38.5205C60.1821 38.3226 59.777 38.2236 59.3069 38.2236C58.874 38.2236 58.4967 38.2979 58.1751 38.4463C57.8596 38.5947 57.5906 38.7957 57.3679 39.0493C57.1453 39.2967 56.9628 39.5812 56.8206 39.9028C56.6845 40.2183 56.5825 40.5461 56.5144 40.8862V43.2891C56.6381 43.722 56.8113 44.1302 57.034 44.5137C57.2566 44.891 57.5535 45.1971 57.9246 45.4321C58.2957 45.661 58.7626 45.7754 59.3255 45.7754C59.7893 45.7754 60.1883 45.6795 60.5222 45.4878C60.8624 45.2899 61.1407 45.0208 61.3572 44.6807C61.5799 44.3405 61.7438 43.9508 61.8489 43.5117C61.954 43.0664 62.0066 42.5933 62.0066 42.0923ZM68.1464 32.75V47H66.4208V32.75H68.1464ZM70.8072 42.0923V41.8789C70.8072 41.1553 70.9123 40.4842 71.1226 39.8657C71.3329 39.241 71.636 38.6999 72.0318 38.2422C72.4276 37.7783 72.907 37.4196 73.4698 37.166C74.0326 36.9062 74.6635 36.7764 75.3624 36.7764C76.0674 36.7764 76.7014 36.9062 77.2642 37.166C77.8332 37.4196 78.3156 37.7783 78.7115 38.2422C79.1135 38.6999 79.4197 39.241 79.6299 39.8657C79.8402 40.4842 79.9454 41.1553 79.9454 41.8789V42.0923C79.9454 42.8159 79.8402 43.487 79.6299 44.1055C79.4197 44.724 79.1135 45.2651 78.7115 45.729C78.3156 46.1867 77.8363 46.5454 77.2735 46.8052C76.7169 47.0588 76.086 47.1855 75.3809 47.1855C74.6758 47.1855 74.0419 47.0588 73.4791 46.8052C72.9162 46.5454 72.4338 46.1867 72.0318 45.729C71.636 45.2651 71.3329 44.724 71.1226 44.1055C70.9123 43.487 70.8072 42.8159 70.8072 42.0923ZM72.5235 41.8789V42.0923C72.5235 42.5933 72.5823 43.0664 72.6998 43.5117C72.8173 43.9508 72.9935 44.3405 73.2286 44.6807C73.4698 45.0208 73.7698 45.2899 74.1285 45.4878C74.4872 45.6795 74.9047 45.7754 75.3809 45.7754C75.851 45.7754 76.2623 45.6795 76.6148 45.4878C76.9735 45.2899 77.2704 45.0208 77.5054 44.6807C77.7405 44.3405 77.9167 43.9508 78.0342 43.5117C78.1579 43.0664 78.2198 42.5933 78.2198 42.0923V41.8789C78.2198 41.3841 78.1579 40.9172 78.0342 40.478C77.9167 40.0327 77.7374 39.64 77.4962 39.2998C77.2611 38.9535 76.9642 38.6813 76.6055 38.4834C76.253 38.2855 75.8386 38.1865 75.3624 38.1865C74.8923 38.1865 74.4779 38.2855 74.1192 38.4834C73.7667 38.6813 73.4698 38.9535 73.2286 39.2998C72.9935 39.64 72.8173 40.0327 72.6998 40.478C72.5823 40.9172 72.5235 41.3841 72.5235 41.8789ZM84.174 38.5391V47H82.4577V36.9619H84.1276L84.174 38.5391ZM87.3098 36.9062L87.3005 38.502C87.1582 38.471 87.0222 38.4525 86.8923 38.4463C86.7686 38.4339 86.6263 38.4277 86.4655 38.4277C86.0697 38.4277 85.7202 38.4896 85.4172 38.6133C85.1141 38.737 84.8575 38.9102 84.6472 39.1328C84.4369 39.3555 84.2699 39.6214 84.1462 39.9307C84.0287 40.2337 83.9514 40.5677 83.9143 40.9326L83.4318 41.2109C83.4318 40.6048 83.4906 40.0358 83.6081 39.5039C83.7318 38.972 83.9204 38.502 84.174 38.0938C84.4276 37.6794 84.7492 37.3577 85.1389 37.1289C85.5347 36.8939 86.0048 36.7764 86.549 36.7764C86.6727 36.7764 86.815 36.7918 86.9758 36.8228C87.1366 36.8475 87.2479 36.8753 87.3098 36.9062ZM93.2362 47.1855C92.5373 47.1855 91.9033 47.068 91.3343 46.833C90.7715 46.5918 90.286 46.2547 89.8778 45.8218C89.4758 45.3888 89.1665 44.8755 88.95 44.2817C88.7336 43.688 88.6253 43.0386 88.6253 42.3335V41.9438C88.6253 41.1274 88.7459 40.4007 88.9871 39.7637C89.2284 39.1204 89.5562 38.5762 89.9705 38.1309C90.3849 37.6855 90.855 37.3485 91.3807 37.1196C91.9064 36.8908 92.4507 36.7764 93.0135 36.7764C93.731 36.7764 94.3495 36.9001 94.869 37.1475C95.3947 37.3949 95.8246 37.7412 96.1585 38.1865C96.4925 38.6257 96.7399 39.1452 96.9007 39.7451C97.0615 40.3389 97.1419 40.9883 97.1419 41.6934V42.4634H89.6458V41.0625H95.4256V40.9326C95.4009 40.4873 95.3081 40.0544 95.1473 39.6338C94.9927 39.2132 94.7453 38.8669 94.4051 38.5947C94.0649 38.3226 93.6011 38.1865 93.0135 38.1865C92.6239 38.1865 92.2651 38.27 91.9373 38.437C91.6095 38.5978 91.3281 38.839 91.0931 39.1606C90.8581 39.4823 90.6756 39.875 90.5457 40.3389C90.4159 40.8027 90.3509 41.3377 90.3509 41.9438V42.3335C90.3509 42.8097 90.4159 43.2581 90.5457 43.6787C90.6818 44.0931 90.8766 44.458 91.1302 44.7734C91.39 45.0889 91.7023 45.3363 92.0672 45.5156C92.4383 45.695 92.8589 45.7847 93.3289 45.7847C93.9351 45.7847 94.4484 45.661 94.869 45.4136C95.2896 45.1662 95.6576 44.8353 95.973 44.4209L97.0121 45.2466C96.7956 45.5744 96.5204 45.8867 96.1864 46.1836C95.8524 46.4805 95.4411 46.7217 94.9525 46.9072C94.4701 47.0928 93.898 47.1855 93.2362 47.1855ZM115.229 33.4922V47H113.429L106.629 36.5815V47H104.838V33.4922H106.629L113.457 43.9385V33.4922H115.229ZM118.048 42.0923V41.8789C118.048 41.1553 118.153 40.4842 118.363 39.8657C118.573 39.241 118.876 38.6999 119.272 38.2422C119.668 37.7783 120.147 37.4196 120.71 37.166C121.273 36.9062 121.904 36.7764 122.603 36.7764C123.308 36.7764 123.942 36.9062 124.505 37.166C125.074 37.4196 125.556 37.7783 125.952 38.2422C126.354 38.6999 126.66 39.241 126.87 39.8657C127.081 40.4842 127.186 41.1553 127.186 41.8789V42.0923C127.186 42.8159 127.081 43.487 126.87 44.1055C126.66 44.724 126.354 45.2651 125.952 45.729C125.556 46.1867 125.077 46.5454 124.514 46.8052C123.957 47.0588 123.326 47.1855 122.621 47.1855C121.916 47.1855 121.282 47.0588 120.719 46.8052C120.157 46.5454 119.674 46.1867 119.272 45.729C118.876 45.2651 118.573 44.724 118.363 44.1055C118.153 43.487 118.048 42.8159 118.048 42.0923ZM119.764 41.8789V42.0923C119.764 42.5933 119.823 43.0664 119.94 43.5117C120.058 43.9508 120.234 44.3405 120.469 44.6807C120.71 45.0208 121.01 45.2899 121.369 45.4878C121.728 45.6795 122.145 45.7754 122.621 45.7754C123.091 45.7754 123.503 45.6795 123.855 45.4878C124.214 45.2899 124.511 45.0208 124.746 44.6807C124.981 44.3405 125.157 43.9508 125.275 43.5117C125.398 43.0664 125.46 42.5933 125.46 42.0923V41.8789C125.46 41.3841 125.398 40.9172 125.275 40.478C125.157 40.0327 124.978 39.64 124.737 39.2998C124.502 38.9535 124.205 38.6813 123.846 38.4834C123.493 38.2855 123.079 38.1865 122.603 38.1865C122.133 38.1865 121.718 38.2855 121.36 38.4834C121.007 38.6813 120.71 38.9535 120.469 39.2998C120.234 39.64 120.058 40.0327 119.94 40.478C119.823 40.9172 119.764 41.3841 119.764 41.8789ZM132.24 45.2188L134.819 36.9619H135.951L135.728 38.604L133.103 47H131.999L132.24 45.2188ZM130.505 36.9619L132.704 45.3115L132.862 47H131.702L128.789 36.9619H130.505ZM138.419 45.2466L140.516 36.9619H142.223L139.309 47H138.159L138.419 45.2466ZM136.202 36.9619L138.725 45.0796L139.013 47H137.918L135.218 38.5854L134.996 36.9619H136.202Z" fill="#274C5B"/>
</svg>
